<svg xmlns="http://www.w3.org/2000/svg" viewBox="0 0 198.7 107.1"><defs><style>.cls-1{fill:#fff;}.cls-2{fill:#0aedac;}</style></defs><title>StuckCoder_Standing_Original_Dark_BG</title><g id="Layer_2" data-name="Layer 2"><g id="Vertical_Logo" data-name="Vertical Logo"><path class="cls-1" d="M4.5,106.4A14.5,14.5,0,0,1,0,104.5l2.2-5.1A19.1,19.1,0,0,0,6,101.2a15.2,15.2,0,0,0,4.2.6c2.7,0,4-.6,4-2A1.7,1.7,0,0,0,13,98.3a16.8,16.8,0,0,0-3.6-1A43.6,43.6,0,0,1,4.9,96a8,8,0,0,1-3.2-2.2,6.2,6.2,0,0,1-1.3-4,7.2,7.2,0,0,1,1.2-4A8.7,8.7,0,0,1,5.2,83a14.9,14.9,0,0,1,5.9-1,24.2,24.2,0,0,1,4.7.5,15.2,15.2,0,0,1,4.1,1.6l-2.1,5.1a13.4,13.4,0,0,0-6.7-1.9,5.6,5.6,0,0,0-3,.6,1.8,1.8,0,0,0-.9,1.6,1.6,1.6,0,0,0,1.1,1.4,12.5,12.5,0,0,0,3.5,1,26.4,26.4,0,0,1,4.6,1.3,8.5,8.5,0,0,1,3.2,2.1,5.7,5.7,0,0,1,1.3,4,7,7,0,0,1-1.2,4,8.7,8.7,0,0,1-3.6,2.8,14.9,14.9,0,0,1-5.9,1A21.2,21.2,0,0,1,4.5,106.4Z"/><path class="cls-1" d="M34.9,105.9a7.6,7.6,0,0,1-2,.8,10.1,10.1,0,0,1-2.5.3,8.1,8.1,0,0,1-5.7-1.8c-1.3-1.2-1.9-3-1.9-5.4V93.5H20V88.6h2.8V83.8h6.5v4.8h4.3v4.9H29.3v6.2a2.1,2.1,0,0,0,.6,1.6,1.7,1.7,0,0,0,1.4.6,3.4,3.4,0,0,0,2-.6Z"/><path class="cls-1" d="M55.4,87.9v18.8H49.2v-2a8.5,8.5,0,0,1-2.5,1.7,8.1,8.1,0,0,1-3.1.6,7.6,7.6,0,0,1-5.8-2.2c-1.4-1.4-2.2-3.5-2.2-6.4V87.9h6.6v9.4a5,5,0,0,0,.8,3.1,2.9,2.9,0,0,0,2.3,1,3.5,3.5,0,0,0,2.6-1.1,5.3,5.3,0,0,0,.9-3.4v-9Z"/><path class="cls-1" d="M61.9,105.7a9.2,9.2,0,0,1-5.2-8.4,9.2,9.2,0,0,1,1.4-5,9.9,9.9,0,0,1,3.8-3.5,12.5,12.5,0,0,1,5.6-1.2A11,11,0,0,1,73,89a7.4,7.4,0,0,1,3.2,3.8l-5,2.6a4.2,4.2,0,0,0-3.8-2.6A4,4,0,0,0,64.5,94a5.5,5.5,0,0,0,0,6.6,3.9,3.9,0,0,0,2.9,1.1,4.1,4.1,0,0,0,3.8-2.5l5,2.6a7.4,7.4,0,0,1-3.2,3.8,11,11,0,0,1-5.5,1.4A12.5,12.5,0,0,1,61.9,105.7Z"/><path class="cls-1" d="M85.4,100.1l-1.9,2v4.6H76.9V81h6.6V94.5l6.7-6.6H98l-7.8,8,8.4,10.8H90.7Z"/><path class="cls-2" d="M104.4,105.5a11.1,11.1,0,0,1-4.7-4.4A12.2,12.2,0,0,1,98,94.6a11.7,11.7,0,0,1,1.7-6.5,12,12,0,0,1,4.7-4.5,14.3,14.3,0,0,1,6.9-1.6,13.8,13.8,0,0,1,5.9,1.2,11.5,11.5,0,0,1,4.5,3.3l-4.4,4a7.2,7.2,0,0,0-5.7-2.8,6.7,6.7,0,0,0-3.5.8,6.4,6.4,0,0,0-2.4,2.5,8,8,0,0,0-.8,3.6,8.6,8.6,0,0,0,.8,3.6,6.9,6.9,0,0,0,2.4,2.4,6.8,6.8,0,0,0,3.5.9,7.3,7.3,0,0,0,5.7-2.9l4.4,4a11.7,11.7,0,0,1-4.5,3.4,15.5,15.5,0,0,1-5.9,1.1A14.3,14.3,0,0,1,104.4,105.5Z"/><path class="cls-2" d="M126,105.7a9.4,9.4,0,0,1-3.7-3.4,9.7,9.7,0,0,1-1.4-5,9.4,9.4,0,0,1,1.4-5,9.6,9.6,0,0,1,3.7-3.5,12,12,0,0,1,5.5-1.2,11.9,11.9,0,0,1,5.4,1.2,9.9,9.9,0,0,1,3.8,3.5,9.1,9.1,0,0,1,1.3,5,8.9,8.9,0,0,1-5.1,8.4,12,12,0,0,1-5.4,1.3A12.7,12.7,0,0,1,126,105.7Zm8.3-5.1a5.5,5.5,0,0,0,0-6.6,3.6,3.6,0,0,0-2.8-1.2,3.8,3.8,0,0,0-2.9,1.2,5.5,5.5,0,0,0,0,6.6,3.8,3.8,0,0,0,2.9,1.1A3.6,3.6,0,0,0,134.3,100.6Z"/><path class="cls-2" d="M163.2,81v25.7H157v-1.9a7,7,0,0,1-5.5,2.2,9.4,9.4,0,0,1-4.7-1.2,9,9,0,0,1-3.3-3.4,10.7,10.7,0,0,1-1.2-5.1,10.1,10.1,0,0,1,1.2-5.1,8.3,8.3,0,0,1,3.3-3.4,9.4,9.4,0,0,1,4.7-1.2,6.9,6.9,0,0,1,5.2,2V81Zm-7.5,19.6a5.5,5.5,0,0,0,0-6.6,3.6,3.6,0,0,0-2.8-1.2,3.5,3.5,0,0,0-2.8,1.2,5.1,5.1,0,0,0,0,6.6,3.4,3.4,0,0,0,2.8,1.1A3.7,3.7,0,0,0,155.7,100.6Z"/><path class="cls-2" d="M184.8,99H171.2a3.6,3.6,0,0,0,1.6,2.2,5.6,5.6,0,0,0,3,.8,7.9,7.9,0,0,0,2.3-.4,9.6,9.6,0,0,0,2-1.3l3.4,3.6c-1.8,2.1-4.5,3.1-8,3.1a12.9,12.9,0,0,1-5.7-1.3,9.3,9.3,0,0,1-3.9-3.4,9.6,9.6,0,0,1-1.3-5,9.3,9.3,0,0,1,1.3-5,8.7,8.7,0,0,1,3.7-3.4,10.2,10.2,0,0,1,5.3-1.3,10.6,10.6,0,0,1,5,1.2,7.7,7.7,0,0,1,3.6,3.3,9.9,9.9,0,0,1,1.4,5.2A13.3,13.3,0,0,0,184.8,99Zm-12.4-5.9a3.6,3.6,0,0,0-1.3,2.4h7.6a4.1,4.1,0,0,0-1.3-2.4,4.1,4.1,0,0,0-2.5-.8A3.9,3.9,0,0,0,172.4,93.1Z"/><path class="cls-2" d="M195,88.3a8.7,8.7,0,0,1,3.7-.7v5.9h-1.5a4.2,4.2,0,0,0-4.5,4.7v8.6h-6.5V87.9h6.2v2.3A6.1,6.1,0,0,1,195,88.3Z"/><path class="cls-1" d="M147.1,32.8v8.5a4.9,4.9,0,0,0-3.3,1.4,5.6,5.6,0,0,0-1.6,4.1v13a14.1,14.1,0,0,1-4.3,10.6,13.3,13.3,0,0,1-8.5,3.7h-8.8a5.8,5.8,0,0,1-3.8-1.3L102.9,61.5l-3.5-2.9,6.7-5.5,15.4,12.6h7.4a5.4,5.4,0,0,0,3.2-1.4,5.7,5.7,0,0,0,1.6-4.2v-13a14.1,14.1,0,0,1,3.8-10A14.3,14.3,0,0,1,133.7,27V14a5.6,5.6,0,0,0-1.6-4.1,4.8,4.8,0,0,0-3.2-1.4H120V0h9.4a13.7,13.7,0,0,1,8.5,3.7,14.2,14.2,0,0,1,4.3,10.6v13a5.6,5.6,0,0,0,1.6,4.1A4.9,4.9,0,0,0,147.1,32.8Z"/><path class="cls-2" d="M114.7,24.5A18.5,18.5,0,0,0,82.2,41.8,17.6,17.6,0,0,0,87.5,49l3.6,2.9,1.6,1.2L77.2,65.7H69.8A5.2,5.2,0,0,1,65,60.1v-13a13.9,13.9,0,0,0-3.7-10A14.1,14.1,0,0,0,65,27V14a5.6,5.6,0,0,1,1.6-4.1,5,5,0,0,1,3.2-1.4h8.9V0H69.3a13.9,13.9,0,0,0-8.5,3.7,14.6,14.6,0,0,0-4.3,10.6v13a5.1,5.1,0,0,1-1.6,4.1,4.9,4.9,0,0,1-3.3,1.4v8.5a4.8,4.8,0,0,1,3.2,1.4,5.2,5.2,0,0,1,1.6,4.1v13a14.5,14.5,0,0,0,4.3,10.6,13.3,13.3,0,0,0,8.5,3.7h8.8a5.8,5.8,0,0,0,3.8-1.3L99.4,58.6l6.7-5.5,5.1-4.1a18.8,18.8,0,0,0,5.4-7.2A18.5,18.5,0,0,0,114.7,24.5Zm-6,14.2a9,9,0,0,1-2.9,3.7l-6.4,5.3-6.5-5.3A11,11,0,0,1,90,38.7a10.2,10.2,0,0,1,1.1-9.4,9.7,9.7,0,0,1,8.3-4.4,10,10,0,0,1,9.3,13.8Z"/></g></g></svg>