<svg xmlns="http://www.w3.org/2000/svg" viewBox="0 0 340.1 43"><defs><style>.cls-1{fill:#00233c;}.cls-2{fill:#0aedac;}</style></defs><title>StuckCoder_Lying_Original_White_BG</title><g id="Layer_2" data-name="Layer 2"><g id="Horizontal_Logo" data-name="Horizontal Logo"><path class="cls-1" d="M72.3,36.7A21,21,0,0,1,66.1,34l3.1-6.9a24.8,24.8,0,0,0,5.2,2.3,20,20,0,0,0,5.8.9c3.7,0,5.5-.9,5.5-2.7a2.3,2.3,0,0,0-1.6-2.1,24.9,24.9,0,0,0-5-1.4,54.9,54.9,0,0,1-6.2-1.8,10.2,10.2,0,0,1-4.4-3,7.9,7.9,0,0,1-1.8-5.5,9.9,9.9,0,0,1,1.7-5.5,11.8,11.8,0,0,1,5-3.9A21.4,21.4,0,0,1,81.5,3a35.9,35.9,0,0,1,6.5.7,21.8,21.8,0,0,1,5.6,2.2l-2.9,7a19.9,19.9,0,0,0-9.3-2.6,7.6,7.6,0,0,0-4.1.9,2.5,2.5,0,0,0-1.2,2.1,2.1,2.1,0,0,0,1.5,2,23.5,23.5,0,0,0,4.9,1.4,45,45,0,0,1,6.3,1.8,10.6,10.6,0,0,1,4.3,2.9A8.1,8.1,0,0,1,95,26.9a9.4,9.4,0,0,1-1.7,5.4,10.5,10.5,0,0,1-5,3.9,19.5,19.5,0,0,1-8.1,1.5A34.9,34.9,0,0,1,72.3,36.7Z"/><path class="cls-1" d="M114.3,36a14.9,14.9,0,0,1-2.8,1.1,19.8,19.8,0,0,1-3.5.3c-3.4,0-5.9-.8-7.8-2.4s-2.7-4.2-2.7-7.4V18.9H93.8V12.2h3.7V5.4h9.1v6.8h5.9v6.7h-5.9v8.6a3.2,3.2,0,0,0,.7,2.2,2.7,2.7,0,0,0,2,.7,4.6,4.6,0,0,0,2.8-.8Z"/><path class="cls-1" d="M142.5,11.2V37h-8.6V34.2a8.1,8.1,0,0,1-3.4,2.4,10.6,10.6,0,0,1-4.3.8c-3.3,0-6-.9-7.9-2.9s-3-4.9-3-8.9V11.2h9v13a6.8,6.8,0,0,0,1.1,4.2,3.9,3.9,0,0,0,3.2,1.3,4.4,4.4,0,0,0,3.5-1.5,6.7,6.7,0,0,0,1.4-4.6V11.2Z"/><path class="cls-1" d="M151.5,35.7a12.8,12.8,0,0,1-5.3-4.7,13.8,13.8,0,0,1-1.9-6.9,13.2,13.2,0,0,1,1.9-6.9,12.8,12.8,0,0,1,5.3-4.7,15.8,15.8,0,0,1,7.6-1.7,14.1,14.1,0,0,1,7.6,1.9,9.6,9.6,0,0,1,4.5,5.2l-7,3.5a5.3,5.3,0,0,0-5.1-3.4,5.2,5.2,0,0,0-4,1.6,6.1,6.1,0,0,0-1.6,4.5,6.1,6.1,0,0,0,1.6,4.5,5.2,5.2,0,0,0,4,1.6,5.3,5.3,0,0,0,5.1-3.4l7,3.5a10.1,10.1,0,0,1-4.5,5.3,15,15,0,0,1-7.6,1.8A15.8,15.8,0,0,1,151.5,35.7Z"/><path class="cls-1" d="M183.9,28l-2.7,2.7V37h-9V1.7h9V20.2l9.3-9h10.7l-10.7,11L202.1,37h-11Z"/><path class="cls-2" d="M210.1,35.5a16.9,16.9,0,0,1-8.9-15.2,16.9,16.9,0,0,1,8.9-15.1A19.5,19.5,0,0,1,219.5,3a20.2,20.2,0,0,1,8.3,1.6,17.6,17.6,0,0,1,6.1,4.7l-6,5.4a10,10,0,0,0-7.9-3.9,9.5,9.5,0,0,0-4.8,1.2,8.3,8.3,0,0,0-3.3,3.4,9.9,9.9,0,0,0-1.2,4.9,10,10,0,0,0,1.2,5,8.3,8.3,0,0,0,3.3,3.4,9.5,9.5,0,0,0,4.8,1.2,10,10,0,0,0,7.9-3.9l6,5.4a17.6,17.6,0,0,1-6.1,4.7,21.9,21.9,0,0,1-8.3,1.6A20.7,20.7,0,0,1,210.1,35.5Z"/><path class="cls-2" d="M239.9,35.7a12.5,12.5,0,0,1-5.2-4.7,12.8,12.8,0,0,1-1.9-6.9,12.3,12.3,0,0,1,1.9-6.9,12.5,12.5,0,0,1,5.2-4.7,17.4,17.4,0,0,1,15,0,12.5,12.5,0,0,1,5.2,4.7,13.2,13.2,0,0,1,1.9,6.9,13.8,13.8,0,0,1-1.9,6.9,12.5,12.5,0,0,1-5.2,4.7,17.4,17.4,0,0,1-15,0Zm11.4-7.1a6.4,6.4,0,0,0,1.5-4.5,6.4,6.4,0,0,0-1.5-4.5,5.6,5.6,0,0,0-7.8,0,6.4,6.4,0,0,0-1.5,4.5,6.4,6.4,0,0,0,1.5,4.5,5.6,5.6,0,0,0,7.8,0Z"/><path class="cls-2" d="M291.2,1.7V37h-8.6V34.4c-1.7,2-4.2,3-7.6,3a12.7,12.7,0,0,1-6.4-1.6,11.6,11.6,0,0,1-4.6-4.7,13.5,13.5,0,0,1-1.7-7A13.6,13.6,0,0,1,264,17a11.3,11.3,0,0,1,4.6-4.6,12.7,12.7,0,0,1,6.4-1.6c3.1,0,5.5.9,7.1,2.6V1.7ZM280.8,28.6a6.4,6.4,0,0,0,1.5-4.5,6.4,6.4,0,0,0-1.5-4.5,5.6,5.6,0,0,0-7.8,0,6.4,6.4,0,0,0-1.5,4.5,6.4,6.4,0,0,0,1.5,4.5,5,5,0,0,0,3.9,1.6A5.1,5.1,0,0,0,280.8,28.6Z"/><path class="cls-2" d="M320.9,26.4H302.1a5.8,5.8,0,0,0,2.2,3.1,7.6,7.6,0,0,0,4.1,1,7.7,7.7,0,0,0,3.2-.5,8.4,8.4,0,0,0,2.8-1.7l4.7,4.9c-2.5,2.8-6.1,4.2-11,4.2a16.7,16.7,0,0,1-7.9-1.7,12.2,12.2,0,0,1-5.3-4.7,12.8,12.8,0,0,1-1.9-6.9,13.1,13.1,0,0,1,1.8-6.9,12.8,12.8,0,0,1,5.1-4.7,16.3,16.3,0,0,1,14.3-.1,12.3,12.3,0,0,1,5,4.6,13.7,13.7,0,0,1,1.8,7.2S321,25,320.9,26.4Zm-17.2-8a5.3,5.3,0,0,0-1.7,3.2h10.5a4.9,4.9,0,0,0-1.8-3.2,5.1,5.1,0,0,0-3.5-1.2A5.3,5.3,0,0,0,303.7,18.4Z"/><path class="cls-2" d="M335,11.7a13.6,13.6,0,0,1,5.1-.9v8.1H338a6.4,6.4,0,0,0-4.5,1.5c-1.1,1.1-1.6,2.7-1.6,4.9V37h-9.1V11.2h8.6v3.1A7.3,7.3,0,0,1,335,11.7Z"/><path class="cls-1" d="M55.4,19.1V24a2.7,2.7,0,0,0-1.9.8,3.3,3.3,0,0,0-1,2.4v7.5a7.9,7.9,0,0,1-2.4,6.2,7.6,7.6,0,0,1-5,2.1H40a3.5,3.5,0,0,1-2.2-.8l-8-6.5L27.7,34l3.9-3.2,8.9,7.3h4.4a3.3,3.3,0,0,0,1.8-.8,3.1,3.1,0,0,0,.9-2.4h0V27.4a8.6,8.6,0,0,1,2.2-5.9,8.4,8.4,0,0,1-2.2-5.8V8.1a3.2,3.2,0,0,0-.9-2.4,4.2,4.2,0,0,0-1.8-.8H39.7V0h5.4a8.4,8.4,0,0,1,5,2.2,7.6,7.6,0,0,1,2.4,6.1v7.5a3.6,3.6,0,0,0,1,2.5A4.1,4.1,0,0,0,55.4,19.1Z"/><path class="cls-2" d="M36.6,14.2a10.6,10.6,0,0,0-8.9-4.7,10.4,10.4,0,0,0-8.9,4.7,11,11,0,0,0-1.1,10.1,10.2,10.2,0,0,0,3.1,4.1l2.1,1.7.9.7-9,7.3H10.5a2.8,2.8,0,0,1-1.8-.8,3.4,3.4,0,0,1-1-2.4V27.4a8.6,8.6,0,0,0-2.2-5.9,8.4,8.4,0,0,0,2.2-5.8V8.1a3.4,3.4,0,0,1,1-2.4,2.8,2.8,0,0,1,1.8-.8h5.2V0H10.3a8.4,8.4,0,0,0-5,2.2A8.3,8.3,0,0,0,2.8,8.3v7.4h0a3,3,0,0,1-.9,2.4,3.9,3.9,0,0,1-1.9.9V24a2.8,2.8,0,0,1,1.9.8,3,3,0,0,1,.9,2.4h0v7.5a8.4,8.4,0,0,0,2.5,6.2,8.1,8.1,0,0,0,5,2.1h5a4,4,0,0,0,2.3-.8L27.7,34l3.9-3.2,2.9-2.4a10.4,10.4,0,0,0,3.2-4.1A11,11,0,0,0,36.6,14.2Zm-3.5,8.2a5.1,5.1,0,0,1-1.7,2.2l-3.7,3.1-3.8-3.1a5.7,5.7,0,0,1-1.6-2.2,5.5,5.5,0,0,1,.6-5.4,5.8,5.8,0,0,1,10.2,5.4Z"/></g></g></svg>